# xmcd
#
# Track frame offsets:
#	150
#	4117
#	29842
#	56387
#	83117
#	104130
#	126615
#	155420
#
# Disc length: 2137 seconds
#
# Revision: 2
# Processed by: cddbd v1.5.2PL0 Copyright (c) Steve Scherf et al.
# Submitted via: audiograbber 1.83.01
#
DISCID=6b085708
DTITLE=Beyond Reality - Sacred Ground
DYEAR=1998
DGENRE=Metal
TTITLE0=The Awakening
TTITLE1=Anywhere 6 a.m.
TTITLE2=When All Else Fails
TTITLE3=On My Way
TTITLE4=Sacred Ground
TTITLE5=Pages of Decay
TTITLE6=Rage of Man
TTITLE7=Departure
EXTD=
EXTT0=
EXTT1=
EXTT2=
EXTT3=
EXTT4=
EXTT5=
EXTT6=
EXTT7=
PLAYORDER=
